<svg xmlns="http://www.w3.org/2000/svg" height="400" width="400" viewBox="0 0 400 400"><g fill="none" fill-rule="evenodd"><polygon fill="#0C1E29" points="0 0 100 0 100 100 25 100 0 100"/><polygon fill="#0C1E29" points="200 0 400 0 400 200 250 200 200 200"/><polygon fill="#0C1E29" points="100 0 200 0 200 100 125 100 100 100"/><rect width="100" height="50" fill="#10222E"/><rect width="50" height="10" x="150" fill="#10222E"/><rect width="50" height="10" x="150" y="20" fill="#10222E"/><rect width="50" height="10" x="150" y="40" fill="#10222E"/><rect width="50" height="10" x="150" y="60" fill="#10222E"/><rect width="50" height="10" x="150" y="80" fill="#10222E"/><rect width="100" height="100" x="300" fill="#142936"/><rect width="50" height="50" x="300" y="50" fill="#0C1E29"/><rect width="50" height="50" x="350" fill="#0C1E29"/><polygon fill="#10222E" points="350 50 400 50 350 100"/><polygon fill="#142936" points="0 50 25 50 75 100 0 100"/><rect width="50" height="100" x="100" fill="#142936"/><rect width="100" height="100" x="200" y="100" fill="#10222E"/><rect width="100" height="100" y="100" fill="#0C1E29"/><rect width="100" height="100" y="200" fill="#10222E"/><rect width="100" height="100" y="300" fill="#10222E"/><rect width="100" height="100" x="100" y="300" fill="#10222E"/><rect width="200" height="5" y="305" fill="#142936"/><rect width="200" height="5" y="315" fill="#142936"/><rect width="200" height="5" y="325" fill="#142936"/><rect width="200" height="5" y="335" fill="#142936"/><rect width="200" height="5" y="345" fill="#142936"/><rect width="200" height="5" y="355" fill="#142936"/><rect width="200" height="5" y="365" fill="#142936"/><rect width="200" height="5" y="375" fill="#142936"/><rect width="200" height="5" y="385" fill="#142936"/><rect width="200" height="5" y="395" fill="#142936"/><path fill="#0C1E29" d="M0 400c0-55.23 44.77-100 100-100s100 44.77 100 100H0z"/><path fill="#10222E" d="M.5 390c.16-1.68.37-3.35.62-5h197.76c.25 1.65.46 3.32.63 5H.49zm-.38 5h199.76c.08 1.66.12 3.32.12 5H0c0-1.68.04-3.34.12-5zM2 380c.34-1.68.73-3.35 1.15-5h193.7c.42 1.65.8 3.32 1.15 5H2zm2.58-10c.53-1.69 1.1-3.35 1.72-5h187.4a99.23 99.23 0 0 1 1.72 5H4.58zm3.74-10c.74-1.7 1.52-3.36 2.35-5h178.66c.83 1.64 1.61 3.3 2.35 5H8.32zm5.06-10c.98-1.7 2.01-3.37 3.09-5h167.06c1.08 1.63 2.1 3.3 3.1 5H13.37zm6.61-10c1.29-1.71 2.63-3.38 4.01-5h152c1.38 1.62 2.72 3.29 4 5H20zm8.6-10c1.7-1.73 3.45-3.4 5.26-5h132.3c1.81 1.6 3.57 3.27 5.26 5H28.6zm11.4-10c2.36-1.77 4.8-3.44 7.3-5H152.7c2.52 1.56 4.95 3.23 7.31 5H39.99zm16.37-10a99.35 99.35 0 0 1 12.33-5h62.62a99.35 99.35 0 0 1 12.33 5H56.36z"/><path fill="#142936" d="M50 400a50 50 0 0 1 100 0H50z"/><path fill="#10222E" d="M75 400a25 25 0 1 1 50 0H75z"/><rect width="100" height="100" x="300" y="300" fill="#10222E"/><polygon fill="#0C1E29" points="350 350 400 350 400 400 300 400"/><rect width="100" height="100" x="200" y="300" fill="#0C1E29"/><rect width="100" height="100" x="300" y="200" fill="#0C1E29"/><polygon fill="#142936" points="350 250 350 200 300 250"/><rect width="100" height="100" x="200" y="200" fill="#10222E"/><path fill="#0C1E29" d="M290 200v100h-10V200h10zm-20 0v100h-10V200h10zm-20 0v100h-10V200h10zm-20 0v100h-10V200h10zm-20 0v100h-10V200h10z"/><rect width="50" height="2" x="350" y="250" fill="#142936"/><rect width="50" height="2" x="350" y="260" fill="#142936"/><rect width="50" height="2" x="350" y="270" fill="#142936"/><rect width="50" height="2" x="350" y="280" fill="#142936"/><rect width="50" height="2" x="350" y="290" fill="#142936"/><rect width="50" height="25" x="350" y="200" fill="#10222E"/><path fill="#142936" d="M292 200v100h-2V200h2zm-20 0v100h-2V200h2zm-20 0v100h-2V200h2zm-20 0v100h-2V200h2zm-20 0v100h-2V200h2z"/><path fill="#142936" d="M350 250v100a50 50 0 0 1 0-100z"/><path fill="#10222E" d="M300 300a50 50 0 0 1 50-50v50h-50z"/><path fill="#0C1E29" d="M100 300H0V200c55.23 0 100 44.77 100 100z"/><circle cx="12.5" cy="287.5" r="2.5" fill="#142936"/><circle cx="12.5" cy="272.5" r="2.5" fill="#142936"/><circle cx="12.5" cy="257.5" r="2.5" fill="#142936"/><circle cx="12.5" cy="242.5" r="2.5" fill="#142936"/><circle cx="12.5" cy="227.5" r="2.5" fill="#142936"/><circle cx="12.5" cy="212.5" r="2.5" fill="#142936"/><circle cx="27.5" cy="287.5" r="2.5" fill="#142936"/><circle cx="27.5" cy="272.5" r="2.5" fill="#142936"/><circle cx="27.5" cy="257.5" r="2.5" fill="#142936"/><circle cx="27.5" cy="242.5" r="2.5" fill="#142936"/><circle cx="27.5" cy="227.5" r="2.5" fill="#142936"/><circle cx="42.5" cy="287.5" r="2.5" fill="#142936"/><circle cx="42.5" cy="272.5" r="2.5" fill="#142936"/><circle cx="42.5" cy="257.5" r="2.5" fill="#142936"/><circle cx="42.5" cy="242.5" r="2.5" fill="#142936"/><circle cx="42.5" cy="227.5" r="2.5" fill="#142936"/><circle cx="57.5" cy="287.5" r="2.5" fill="#142936"/><circle cx="57.5" cy="272.5" r="2.5" fill="#142936"/><circle cx="57.5" cy="257.5" r="2.5" fill="#142936"/><circle cx="57.5" cy="242.5" r="2.5" fill="#142936"/><circle cx="72.5" cy="287.5" r="2.5" fill="#142936"/><circle cx="72.5" cy="272.5" r="2.5" fill="#142936"/><circle cx="72.5" cy="257.5" r="2.5" fill="#142936"/><circle cx="87.5" cy="287.5" r="2.5" fill="#142936"/><rect width="100" height="100" x="100" y="100" fill="#0C1E29"/><rect width="100" height="100" x="100" y="200" fill="#142936"/><polygon fill="#10222E" points="125 275 175 225 225 275" transform="rotate(-90 175 250)"/><polygon fill="#0C1E29" points="75 275 125 225 175 275" transform="rotate(-90 125 250)"/><polygon fill="#10222E" points="100 100 200 100 100 200"/><polygon fill="#10222E" points="300 100 400 200 400 100"/><polygon fill="#142936" points="350 150 400 200 300 200"/><circle cx="115" cy="20" r="5" fill="#10222E"/><circle cx="135" cy="20" r="5" fill="#10222E"/><circle cx="115" cy="40" r="5" fill="#10222E"/><circle cx="135" cy="40" r="5" fill="#10222E"/><circle cx="115" cy="60" r="5" fill="#10222E"/><circle cx="135" cy="60" r="5" fill="#10222E"/><circle cx="115" cy="80" r="5" fill="#10222E"/><circle cx="135" cy="80" r="5" fill="#10222E"/><circle cx="235" cy="335" r="5" fill="#142936"/><circle cx="265" cy="335" r="5" fill="#142936"/><circle cx="235" cy="365" r="5" fill="#142936"/><circle cx="265" cy="365" r="5" fill="#142936"/><path fill="#0C1E29" d="M200 0c55.23 0 100 44.77 100 100s-44.77 100-100 100V0z"/><path fill="#10222E" d="M300 100H200V0c55.23 0 100 44.77 100 100z"/><path fill="#142936" fill-rule="nonzero" d="M200 13a87 87 0 0 1 0 174v-4a83 83 0 0 0 0-166v-4zm0 20a67 67 0 0 1 0 134v-4a63 63 0 0 0 0-126v-4zm0 20a47 47 0 0 1 0 94v-4a43 43 0 0 0 0-86v-4zm0 20a27 27 0 0 1 0 54v-4a23 23 0 0 0 0-46v-4z"/><circle cx="325" cy="75" r="10" fill="#142936"/><rect width="25" height="50" x="300" fill="#10222E"/><rect width="2" height="100" y="100" fill="#142936"/><rect width="2" height="100" x="10" y="100" fill="#142936"/><rect width="2" height="100" x="20" y="100" fill="#142936"/><rect width="2" height="100" x="30" y="100" fill="#142936"/><rect width="2" height="100" x="40" y="100" fill="#142936"/><rect width="2" height="100" x="50" y="100" fill="#142936"/><rect width="2" height="100" x="60" y="100" fill="#142936"/><rect width="2" height="100" x="70" y="100" fill="#142936"/><rect width="2" height="100" x="80" y="100" fill="#142936"/><rect width="2" height="100" x="90" y="100" fill="#142936"/><circle cx="150" cy="150" r="30" fill="#142936"/><circle cx="150" cy="150" r="26" fill="#10222E"/><path fill="#0C1E29" d="M131.62 168.38a26 26 0 1 1 36.76-36.76l-36.76 36.76z"/></g></svg>
