<svg class="w-10 h-10 mr-1" viewBox="0 0 300 300" fill="none" xmlns="http://www.w3.org/2000/svg">
    <path d="M132.843 179.487L135.617 172.553C136.312 170.571 138.433 169.476 140.451 170.057L177.142 181.072L216.408 116.962L116.598 88.434L132.843 179.487ZM218.547 109.077V71L183.402 97.349L218.547 109.077ZM253.574 93.6245L226.472 71.4358V91.2472L253.574 93.6245ZM217.477 130.434L187.721 179.17L214.585 171.008L217.477 130.434ZM171.594 187.887L141.64 178.892C132.804 200.962 138.985 185.906 111.566 250.728L171.594 187.887ZM108.396 87.6019L45.6736 100.796L120.957 157.179L108.396 87.6019ZM97.7774 149.809L64.6133 124.926L45.634 139.587L97.7774 149.809Z" fill="#4299E1"/>
    <path d="M132.843 179.487L135.617 172.553C136.312 170.571 138.433 169.476 140.451 170.057L177.142 181.072L216.408 116.962L116.598 88.434L132.843 179.487ZM218.547 109.077V71L183.402 97.349L218.547 109.077ZM253.574 93.6245L226.472 71.4358V91.2472L253.574 93.6245ZM217.477 130.434L187.721 179.17L214.585 171.008L217.477 130.434ZM171.594 187.887L141.64 178.892C132.804 200.962 138.985 185.906 111.566 250.728L171.594 187.887ZM108.396 87.6019L45.6736 100.796L120.957 157.179L108.396 87.6019ZM97.7774 149.809L64.6133 124.926L45.634 139.587L97.7774 149.809Z" fill="url(#paint0_linear)"/>
    <defs>
        <linearGradient id="paint0_linear" x1="149.604" y1="71" x2="149.604" y2="250.728" gradientUnits="userSpaceOnUse">
            <stop stop-color="#3182CE"/>
            <stop offset="1" stop-color="#81E6D9" stop-opacity="0"/>
        </linearGradient>
    </defs>
</svg>