
<svg viewBox="0 0 209 180" fill="none"
    xmlns="http://www.w3.org/2000/svg">
    <path d="M87.843 108.487L90.617 101.553C91.312 99.571 93.433 98.476 95.451 99.057L132.142 110.072L171.408 45.962L71.598 17.434L87.843 108.487ZM173.547 38.077V0L138.402 26.349L173.547 38.077ZM208.574 22.6245L181.472 0.435799V20.2472L208.574 22.6245ZM172.477 59.434L142.721 108.17L169.585 100.008L172.477 59.434ZM126.594 116.887L96.64 107.892C87.804 129.962 93.985 114.906 66.566 179.728L126.594 116.887ZM63.396 16.6019L0.673634 29.796L75.957 86.179L63.396 16.6019ZM52.7774 78.809L19.6133 53.926L0.634033 68.587L52.7774 78.809Z" fill="#3B82F6"/>
</svg>
